<?xml version="1.0" encoding="UTF-8"?>
<!DOCTYPE svg PUBLIC "-//W3C//DTD SVG 1.1//EN" "http://www.w3.org/Graphics/SVG/1.1/DTD/svg11.dtd">
<!-- Creator: CorelDRAW 2020 (64 Bit) -->
<svg xmlns="http://www.w3.org/2000/svg" xml:space="preserve" width="15.24mm" height="21.1666mm" version="1.1" style="shape-rendering:geometricPrecision; text-rendering:geometricPrecision; image-rendering:optimizeQuality; fill-rule:evenodd; clip-rule:evenodd"
viewBox="0 0 1524 2116.66"
 xmlns:xlink="http://www.w3.org/1999/xlink"
 xmlns:xodm="http://www.corel.com/coreldraw/odm/2003">
 <defs>
  <style type="text/css">
   <![CDATA[
    .fil0 {fill:black}
    .fil1 {fill:black;fill-rule:nonzero}
   ]]>
  </style>
 </defs>
 <g id="Camada_x0020_1">
  <metadata id="CorelCorpID_0Corel-Layer"/>
  <g id="_2113564674192">
   <path class="fil0" d="M408.47 497.28c-0.56,-9.49 -3.5,-23.88 6.99,-27.77 5.85,-2.17 18.77,-3.23 26.24,-5.11 82.77,-20.79 162.59,-91.93 189.63,-117.89 27.41,-26.32 38.35,-32.09 64.87,-5.44 71.43,71.75 222.24,65.35 320.93,52.65 50,-6.44 95.56,7.29 120.35,50.42 16.45,28.63 1.18,58.82 6.82,91.23 3.88,22.37 36.02,164.87 0.55,150.57 -127.52,-51.43 -255.16,-17.7 -307.6,0.76 -73.16,25.74 -61.79,25.23 -133.41,1.02 -144.09,-48.71 -247.07,-23.34 -290.39,-7.14 -24.24,9.07 -27.38,20.35 -25.83,-19.34 1.26,-32.06 14.9,-61.47 14.9,-61.47 5.75,-16.61 7.57,-75.6 5.95,-102.49zm740 -193.31c-14.41,-10.82 -36.67,-12.76 -55.19,-15.04 -8.68,-1.06 -8.85,-8.43 -6.04,-14.61 8.01,-17.63 14.6,-5.76 20.55,-0.38 6.33,5.71 48.01,4.65 49.92,25.2 1.21,13.1 -2.14,10.17 -9.24,4.83zm-210.31 -6.37c4.89,-21.38 11.74,-77.97 -34.92,-129.53 -24.09,-26.64 4.57,-15.91 15.64,-7.85 24.03,17.5 91.46,75.59 37.56,144.03 -21.29,29.97 -24.37,19.97 -18.28,-6.65zm26.12 21.85c4.32,-10.6 30.84,-75.72 37.96,-58.97 6.5,15.3 2.69,17.13 5.08,-2.08 2.17,-17.42 6.98,-25.66 11.11,-29.55 15.04,-14.18 26.71,23.03 19.37,39.79 -13.92,31.78 -84.92,78.8 -73.52,50.81zm-424.29 58.58c-41.44,30.81 -160.82,117.83 -203.03,43.64 -12.99,-32.97 116.06,24.37 191.22,-57.44 15.26,-17.02 42.5,-9.02 11.81,13.8zm171.22 -85.37c-95.37,-25.2 -141.7,19.24 -226.7,40.49 -37.19,9.3 -36.27,9.26 -3.3,-12.17 25.53,-16.59 66.31,-39.72 105.73,-47.74 7.78,-1.58 32.55,-4.82 9.34,-15.76 -12.94,-6.09 -39.48,-1.56 -1.07,-11.18 27.63,-6.92 78.18,-10.88 121.98,33.06 24.69,24.77 18.56,19.78 -5.98,13.3zm-305.01 -55.99c-42.71,65.87 -69.61,90.98 -84,100.55 -11.92,7.93 -15.24,3.86 -25.48,17.74 -20.42,27.73 -0.24,64.53 -18.13,72.66 -11.41,5.2 -9.57,18.31 -2.53,29.36 11.67,18.33 37.23,17.58 43.09,45.7 7.84,37.58 4.83,84.44 11.22,122.51 8.35,49.75 24.36,97.96 42.41,144.92 7.9,20.56 21.4,32.21 17.83,2.65 -1.75,-14.51 -6.75,-30.62 1.6,-36.43 6.56,-4.56 16.59,6.44 18.7,26.24 2.89,27.22 7.76,64.72 13.7,83.39 16.49,51.88 85.11,67.18 142.8,66.05 84.91,-1.68 158.96,-31 174.36,-126.17 3.34,-20.65 2.47,-53.67 35.72,-47.8 18.91,3.35 21.86,24.91 23.61,41.78 1.68,16.23 4.91,29.16 13.71,45.08 43.99,79.57 145.99,110.3 231.94,79.39 78.03,-28.07 77.49,-72.42 86.86,-148.92 1.94,-15.78 18.79,-33.44 20.53,-5.08 1.46,23.98 3.44,59.42 10.78,25.74 3.7,-16.99 8.24,-47.85 15.96,-64.23 36.28,-76.99 35.31,-119.44 64.7,-187.27 40.72,-81.43 -17.45,-182.5 -17.45,-182.5 -14.21,-27.54 4.91,-33.78 -4.38,-47.82 -17.27,-26.1 -80.14,-46.16 -80.14,-46.16 23.81,-3.45 23.99,-17.45 23.99,-17.45 -10.54,8.73 -44.17,0.36 -44.17,0.36 20.54,-3.63 16.72,-13.81 16.72,-13.81 -6.72,6.54 -44.53,3.09 -44.53,3.09 16.54,-5.45 12.9,-12.36 12.9,-12.36 -8.82,3.31 -27.21,2.77 -31.92,-6.36 -72.37,-140.37 -276.8,-232.99 -409.48,-135.45 -4.2,3.09 -16.96,15.28 -20.47,9.33 -5,-8.47 10.21,-30.94 -21.98,-9.38 -25.82,17.29 -80.26,54.75 -94.97,56.13 -34.42,3.23 -61.75,52.57 -74.29,79.74 -11.2,24.29 -1.19,15.54 -22.52,15.86 -12.53,0.19 -18.5,6.28 -26.69,18.92zm84.31 136.29c-23.09,15.85 -84.92,40.73 -108.01,19.16 -20,-18.67 -1.63,-15.05 11.37,-16.21 34.89,-3.09 62.44,-12.22 77.39,-18.19 25.66,-10.25 50.05,-5.91 19.25,15.24zm115.95 -177.15c-26.49,10.96 -18.39,-6.92 -7.38,-13.35 89.74,-53.84 157.85,-49.71 184.3,-45 58.03,10.32 116.02,72.92 123.79,131.09 4.01,30.06 -8.9,13.41 -15.42,1.17 -77.95,-146.46 -239.32,-92.92 -285.29,-73.91zm508.07 504.47c23.62,-11.69 46.79,11.59 22.75,19.3 -17.46,5.6 -39.56,-10.97 -22.75,-19.3zm-241.78 7.82c78.4,-28.26 227.76,-45 232.49,49.68 3.17,63.6 -25.49,108.83 -73.28,125.6 -152.61,53.58 -271.29,-134.88 -159.21,-175.28zm-434.05 49.68c4.73,-94.68 154.09,-77.94 232.49,-49.68 112.08,40.4 -6.59,228.86 -159.21,175.28 -47.79,-16.77 -76.45,-62 -73.28,-125.6zm-15.59 -38.2c-17.46,5.6 -39.56,-10.97 -22.75,-19.3 23.62,-11.69 46.78,11.59 22.75,19.3z"/>
   <path class="fil0" d="M703.45 1191.78c-45.97,1.28 -83.82,76.03 -129.12,112.82 -70.52,57.28 -156.88,-8.9 -94.93,-84.01 17.74,-21.52 2.1,-20.34 -15.63,-13.5 -60.4,23.31 -54.79,107.78 -38.66,167.94 14.29,53.35 53.37,102.32 105.06,114.14 87.6,20.03 171.72,-52.03 222.14,-119.08 23.29,-30.97 17.86,-23.94 35.51,3.24 16.24,25.01 47.12,51.59 69.62,69.12 77.34,60.26 166.77,76.28 225.78,-5.4 40.01,-55.36 59.19,-139.95 25.17,-201.9 -21.11,-38.44 -75.97,-52.57 -41.65,-3.16 22.79,32.8 13.57,57.3 1.41,72.33 -57.06,70.49 -129.72,-20.78 -183,-78.47 -22.4,-24.25 -54.32,-48.49 -82.61,-28.61 -9.67,6.8 -20.64,24.1 -33.66,24.53 -16.84,0.56 -23.87,-31.15 -65.43,-29.99z"/>
   <path class="fil0" d="M1018.57 1708.23c21.44,-45.59 8.27,-158.86 31.05,-100.3 14.67,37.69 7.89,91.07 -21.42,120.6 -32.01,32.24 -17.61,-3.34 -9.63,-20.3zm-523.07 -205.92c-23.16,-10.53 -23.97,17.1 -27.38,32.24 -7.8,34.67 -28.26,140.96 1.93,188.06 0,0 4.42,8.45 5.57,19.62 1.03,9.87 -4.7,19.76 12.98,10.55 9.09,-4.74 6.32,-15.73 14.08,-5.28 5.16,6.95 3.02,15.83 2.05,24.61 -5.44,49.13 23.82,159.18 66.78,165.19 27.29,3.82 12.35,-15.42 27.89,10.54 21.4,35.76 88.8,125.44 233.89,142.22 23.34,2.7 20.59,0.77 8.75,-28.36 -4.57,-11.25 -3.92,-7.57 5.25,-18.84 13.81,-16.96 42.9,-50.46 77.42,-77.22 13.84,-10.73 7.19,-19.01 10.85,-25.53 3.61,-6.44 11.29,-8.07 15.66,-0.42 6.13,10.7 -0.58,15.75 13.35,2.24 41.44,-40.23 84.47,-117.6 88.81,-172.83 1.64,-20.86 -2.39,-7.86 10.45,-3.16 13.85,5.06 20.09,-25.17 22.58,-39 10.96,-60.98 9.72,-172.16 -22.69,-215.55 -7.83,-10.49 -9.04,-7.65 -20.51,-5.52 -68.82,12.75 -130.99,3.01 -188.18,-39.77 -27.23,-20.37 -50.83,-46.8 -68.83,-73.97 -10.85,-16.39 -15.57,-31.51 -31.55,-3.8 -54.22,93.93 -148.96,137.52 -259.15,113.98zm99.43 241.47c13.66,29.4 28.14,50.75 39.74,65.19 23.21,28.88 33.43,39.7 -11.6,9.68 -28.28,-18.86 -38.21,-48.75 -41.36,-72.32 -7.54,-56.58 0.14,-30.7 13.22,-2.55zm-39.91 12.54c-7.14,-46.22 89.07,198.88 193.74,229.4 10.28,2.99 108.19,17.66 43.12,29.43 -136.08,24.62 -219.66,-147.56 -236.86,-258.83z"/>
   <path class="fil0" d="M847.97 1078.06l0 91.66 87.25 0 -0.72 -58.94 18.9 0 39.26 58.94 77.62 0 -63.23 -94.25c15.65,-5.86 26.87,-21 26.87,-38.63l0 -24.67c0,-45.34 -37.09,-82.44 -82.44,-82.44l-103.51 0 0 148.33zm85.41 -29.94l0 -57.44 12.72 0c15.8,0 28.72,12.92 28.72,28.72 0,15.79 -12.92,28.72 -28.72,28.72l-12.72 0z"/>
   <path class="fil0" d="M283.37 1119.01l18.39 -58.17 21.24 58.17 -39.63 0zm141.26 50.71l-85.43 -239.99 -73.98 0 -86.34 239.99 90.16 0 10.9 -29.13 46.54 0 15.99 29.13 82.16 0z"/>
   <path class="fil0" d="M1189.31 1119.01l18.39 -58.17 21.24 58.17 -39.63 0zm141.26 50.71l-85.43 -239.99 -73.98 0 -86.34 239.99 90.16 0 10.9 -29.13 46.54 0 15.99 29.13 82.16 0z"/>
   <path class="fil0" d="M702.38 1086.21l0 -156.48 -85.8 0 0 138.19c0,55.99 45.81,101.8 101.79,101.8 55.99,0 101.79,-45.81 101.79,-101.8l0 -138.19 -84.91 0 0 156.48c0,9.04 -7.4,16.44 -16.44,16.44 -9.04,0 -16.43,-7.4 -16.43,-16.44z"/>
   <polygon class="fil0" points="538.24,1078.06 538.24,929.73 444.99,929.73 444.99,1169.72 597.68,1169.72 597.68,1078.06 "/>
   <path class="fil0" d="M362.1 878.84l-170.13 0c-7.2,0 -13.09,5.89 -13.09,13.09 0,7.19 5.89,13.08 13.09,13.08l170.13 0c7.2,0 13.09,-5.89 13.09,-13.08 0,-7.2 -5.89,-13.09 -13.09,-13.09z"/>
   <path class="fil0" d="M1332.03 878.84l-170.14 0c-7.2,0 -13.09,5.89 -13.09,13.09 0,7.19 5.89,13.08 13.09,13.08l170.14 0c7.19,0 13.08,-5.89 13.08,-13.08 0,-7.2 -5.89,-13.09 -13.08,-13.09z"/>
   <path class="fil0" d="M1332.03 1200.64l-170.14 0c-7.2,0 -13.09,5.89 -13.09,13.09 0,7.2 5.89,13.09 13.09,13.09l170.14 0c7.19,0 13.08,-5.89 13.08,-13.09 0,-7.2 -5.89,-13.09 -13.08,-13.09z"/>
   <path class="fil0" d="M362.1 1200.64l-170.13 0c-7.2,0 -13.09,5.89 -13.09,13.09 0,7.2 5.89,13.09 13.09,13.09l170.13 0c7.2,0 13.09,-5.89 13.09,-13.09 0,-7.2 -5.89,-13.09 -13.09,-13.09z"/>
   <path class="fil1" d="M211.83 1272.69l-22.82 0 0 19.97 21.01 0c1.55,0 2.71,0.57 3.46,1.68 0.77,1.12 1.14,2.61 1.14,4.45 0,1.83 -0.37,3.34 -1.11,4.5 -0.76,1.15 -1.91,1.74 -3.49,1.74l-21.01 0 0 23.14 23.6 0c1.59,0 2.79,0.61 3.6,1.8 0.81,1.19 1.22,2.8 1.22,4.78 0,1.91 -0.41,3.48 -1.22,4.67 -0.81,1.19 -2.01,1.8 -3.6,1.8l-27.53 0c-2.2,0 -3.78,-0.79 -4.75,-2.38 -0.97,-1.59 -1.45,-4.16 -1.45,-7.7l0 -61.08c0,-2.36 0.22,-4.29 0.65,-5.78 0.43,-1.5 1.11,-2.6 2.03,-3.28 0.91,-0.68 2.09,-1.02 3.52,-1.02l26.75 0c1.62,0 2.82,0.59 3.6,1.74 0.78,1.17 1.17,2.71 1.17,4.58 0,1.93 -0.39,3.48 -1.17,4.65 -0.78,1.15 -1.98,1.74 -3.6,1.74z"/>
   <path id="1" class="fil1" d="M263.48 1316.86c0,4.9 -0.77,9.31 -2.34,13.22 -1.54,3.92 -3.83,6.98 -6.83,9.19 -3.01,2.21 -6.57,3.31 -10.68,3.31 -4.94,0 -9.01,-1.51 -12.22,-4.52 -2.26,-2.17 -4.1,-5.08 -5.53,-8.72 -1.42,-3.63 -2.13,-7.16 -2.13,-10.6 0,-1.99 0.43,-3.69 1.28,-5.13 0.85,-1.42 1.94,-2.12 3.26,-2.12 1.07,0 1.96,0.55 2.69,1.67 0.75,1.09 1.38,2.74 1.9,4.93 0.63,2.57 1.33,4.75 2.06,6.47 0.75,1.74 1.79,3.18 3.12,4.31 1.36,1.12 3.11,1.68 5.3,1.68 3,0 5.44,-1.13 7.31,-3.4 1.88,-2.27 2.82,-5.1 2.82,-8.51 0,-2.7 -0.5,-4.9 -1.51,-6.56 -1.02,-1.68 -2.33,-2.97 -3.94,-3.86 -1.59,-0.89 -3.75,-1.83 -6.42,-2.83 -3.59,-1.37 -6.6,-2.97 -9.02,-4.79 -2.42,-1.83 -4.34,-4.33 -5.76,-7.49 -1.42,-3.16 -2.13,-7.07 -2.13,-11.78 0,-4.46 0.74,-8.43 2.25,-11.91 1.5,-3.46 3.68,-6.13 6.52,-8 2.84,-1.87 6.18,-2.8 10.02,-2.8 3.07,0 5.72,0.63 7.97,1.85 2.23,1.25 4.09,2.9 5.57,4.94 1.47,2.04 2.56,4.2 3.24,6.45 0.68,2.25 1.03,4.46 1.03,6.6 0,1.95 -0.43,3.72 -1.28,5.29 -0.85,1.57 -1.92,2.35 -3.2,2.35 -1.16,0 -2.03,-0.48 -2.64,-1.4 -0.6,-0.95 -1.26,-2.5 -1.95,-4.63 -0.93,-3.07 -2.01,-5.47 -3.29,-7.19 -1.27,-1.72 -3.32,-2.57 -6.15,-2.57 -2.61,0 -4.72,0.92 -6.32,2.8 -1.61,1.87 -2.41,4.1 -2.41,6.73 0,1.62 0.27,3.02 0.82,4.22 0.54,1.17 1.3,2.19 2.26,3.04 0.95,0.85 1.92,1.51 2.9,2 0.97,0.48 2.59,1.18 4.84,2.1 2.82,1.08 5.38,2.25 7.66,3.56 2.28,1.28 4.23,2.85 5.83,4.71 1.61,1.83 2.85,4.18 3.75,6.99 0.9,2.84 1.35,6.3 1.35,10.4z"/>
   <path id="2" class="fil1" d="M304.58 1273.6l-11.06 0 0 58.96c0,3.4 -0.46,5.92 -1.41,7.56 -0.93,1.65 -2.14,2.46 -3.62,2.46 -1.5,0 -2.73,-0.83 -3.67,-2.49 -0.95,-1.67 -1.43,-4.16 -1.43,-7.53l0 -58.96 -11.05 0c-1.73,0 -3.01,-0.63 -3.85,-1.86 -0.84,-1.24 -1.27,-2.89 -1.27,-4.93 0,-2.1 0.44,-3.76 1.32,-4.99 0.87,-1.23 2.14,-1.84 3.8,-1.84l32.24 0c1.75,0 3.04,0.63 3.91,1.89 0.85,1.27 1.28,2.92 1.28,4.94 0,2.04 -0.45,3.69 -1.31,4.93 -0.86,1.23 -2.15,1.86 -3.88,1.86z"/>
   <path id="3" class="fil1" d="M322.01 1259.98l13.21 0c3.43,0 6.38,0.51 8.84,1.55 2.47,1.04 4.69,2.99 6.69,5.83 5.21,7.24 7.81,18.26 7.81,33.03 0,4.88 -0.25,9.33 -0.78,13.35 -0.52,4.03 -1.33,7.66 -2.42,10.9 -1.09,3.23 -2.49,6.12 -4.2,8.68 -1.34,1.94 -2.8,3.51 -4.4,4.69 -1.59,1.19 -3.31,2.02 -5.13,2.49 -1.83,0.47 -3.91,0.72 -6.2,0.72l-13.21 0c-1.84,0 -3.22,-0.45 -4.17,-1.36 -0.93,-0.91 -1.53,-2.18 -1.81,-3.82 -0.29,-1.65 -0.43,-3.78 -0.43,-6.39l0 -59.59c0,-3.53 0.49,-6.11 1.47,-7.69 0.97,-1.59 2.56,-2.39 4.73,-2.39zm3.93 13.05l0 55.14 7.69 0c1.67,0 3,-0.07 3.96,-0.22 0.95,-0.16 1.94,-0.52 2.96,-1.1 1.03,-0.61 1.91,-1.44 2.66,-2.5 3.38,-4.65 5.08,-12.67 5.08,-24.05 0,-8.02 -0.74,-14.03 -2.23,-18.02 -1.49,-3.99 -3.33,-6.53 -5.51,-7.62 -2.19,-1.08 -4.83,-1.63 -7.91,-1.63l-6.7 0z"/>
   <path class="fil1" d="M1171.17 1328.5l19.31 0c1.93,0 3.4,0.66 4.41,2.01 1.01,1.32 1.51,3.13 1.51,5.42 0,2.03 -0.4,3.76 -1.2,5.19 -0.8,1.41 -2.02,2.11 -3.65,2.11l-27.25 0c-1.85,0 -3.29,-0.85 -4.33,-2.58 -1.04,-1.73 -1.56,-3.76 -1.56,-6.11 0,-1.49 0.34,-3.48 1,-5.95 0.67,-2.48 1.41,-4.42 2.19,-5.85 3.29,-5.75 6.24,-10.68 8.88,-14.8 2.64,-4.1 4.54,-6.81 5.66,-8.09 2.03,-2.41 3.71,-4.85 5.05,-7.3 1.35,-2.43 2.38,-4.93 3.08,-7.49 0.7,-2.57 1.06,-5.09 1.06,-7.54 0,-2.67 -0.38,-5.06 -1.13,-7.17 -0.76,-2.12 -1.78,-3.74 -3.07,-4.91 -1.3,-1.18 -2.72,-1.75 -4.24,-1.75 -3.24,0 -5.78,2.39 -7.62,7.19 -0.25,0.62 -0.67,2.33 -1.25,5.12 -0.58,2.8 -1.23,4.96 -1.96,6.45 -0.72,1.5 -1.79,2.26 -3.2,2.26 -1.23,0 -2.26,-0.7 -3.07,-2.07 -0.82,-1.36 -1.22,-3.24 -1.22,-5.63 0,-2.86 0.38,-5.87 1.15,-8.99 0.75,-3.14 1.91,-5.98 3.42,-8.52 1.52,-2.54 3.44,-4.59 5.78,-6.15 2.32,-1.55 5.06,-2.34 8.19,-2.34 3.77,0 6.99,1 9.65,2.98 1.74,1.35 3.26,3.18 4.56,5.51 1.32,2.35 2.34,5.04 3.06,8.11 0.73,3.06 1.1,6.24 1.1,9.53 0,5.18 -0.76,9.88 -2.27,14.11 -1.52,4.22 -3.07,7.55 -4.65,9.95 -1.58,2.39 -4.22,6.16 -7.93,11.29 -3.72,5.12 -6.27,9.11 -7.65,11.93 -0.59,1.13 -1.2,2.5 -1.81,4.08z"/>
   <path id="1" class="fil1" d="M1240.74 1298.25c0,6.85 -0.25,12.72 -0.74,17.63 -0.5,4.93 -1.4,9.4 -2.75,13.39 -1.68,4.91 -3.84,8.71 -6.5,11.38 -2.67,2.67 -5.63,3.99 -8.89,3.99 -3.74,0 -7.12,-1.79 -10.09,-5.38 -2.96,-3.59 -5.2,-8.54 -6.71,-14.86 -0.76,-3.46 -1.32,-7.3 -1.68,-11.48 -0.36,-4.19 -0.53,-8.71 -0.53,-13.6 0,-6.3 0.2,-11.96 0.59,-17 0.39,-5.06 1.01,-9.39 1.84,-13.02 1.46,-6 3.58,-10.57 6.35,-13.7 2.77,-3.14 6.09,-4.72 9.94,-4.72 2.54,0 4.85,0.7 6.92,2.09 2.07,1.41 3.89,3.44 5.46,6.13 1.56,2.69 2.89,6.02 3.97,9.97 1.89,6.87 2.82,16.6 2.82,29.18zm-10.16 -1.24c0,-7.62 -0.26,-13.88 -0.81,-18.72 -0.53,-4.87 -1.46,-8.54 -2.74,-11.02 -1.29,-2.47 -3.07,-3.71 -5.33,-3.71 -3.25,0 -5.52,2.77 -6.79,8.32 -1.28,5.53 -1.91,14.07 -1.91,25.62 0,7.84 0.27,14.26 0.81,19.26 0.54,5.01 1.47,8.79 2.74,11.36 1.29,2.56 3.03,3.84 5.23,3.84 2.26,0 4.04,-1.33 5.33,-3.99 1.28,-2.67 2.17,-6.49 2.69,-11.45 0.52,-4.97 0.78,-11.46 0.78,-19.51z"/>
   <path id="2" class="fil1" d="M1265.69 1334.65l0 -56.87c-6.27,8.11 -10.48,12.16 -12.66,12.16 -1.03,0 -1.95,-0.7 -2.75,-2.09 -0.81,-1.39 -1.2,-3.01 -1.2,-4.84 0,-2.14 0.39,-3.7 1.17,-4.7 0.8,-0.98 2.19,-2.28 4.19,-3.86 2.99,-2.37 5.38,-4.87 7.16,-7.5 1.8,-2.62 3.37,-5.57 4.76,-8.81 1.38,-3.27 2.29,-5.26 2.7,-6 0.42,-0.75 1.22,-1.13 2.38,-1.13 1.3,0 2.36,0.85 3.14,2.56 0.8,1.7 1.19,4.05 1.19,7.06l0 71.56c0,8.39 -1.69,12.58 -5.07,12.58 -1.51,0 -2.72,-0.86 -3.63,-2.56 -0.92,-1.71 -1.38,-4.23 -1.38,-7.56z"/>
   <path id="3" class="fil1" d="M1320.21 1302.13c-1.63,3.27 -3.44,5.73 -5.45,7.37 -2.01,1.64 -4.25,2.48 -6.69,2.48 -2.32,0 -4.48,-0.77 -6.5,-2.29 -2.01,-1.51 -3.76,-3.65 -5.22,-6.38 -1.46,-2.73 -2.6,-5.91 -3.38,-9.57 -0.8,-3.65 -1.19,-7.47 -1.19,-11.46 0,-4.31 0.44,-8.37 1.34,-12.23 0.88,-3.87 2.16,-7.2 3.8,-10.04 1.65,-2.84 3.62,-5.03 5.91,-6.64 2.29,-1.57 4.81,-2.36 7.57,-2.36 3.18,0 6.02,0.98 8.53,2.94 2.48,1.94 4.58,4.8 6.29,8.52 1.7,3.74 3,8.43 3.93,14.11 0.9,5.66 1.36,12.08 1.36,19.24 0,8 -0.48,15.05 -1.44,21.15 -0.97,6.11 -2.36,11.23 -4.21,15.39 -1.84,4.15 -4.04,7.22 -6.61,9.25 -2.56,2.03 -5.48,3.03 -8.74,3.03 -3.2,0 -6,-1.03 -8.36,-3.1 -2.37,-2.05 -4.18,-4.61 -5.41,-7.66 -1.23,-3.07 -1.85,-6.02 -1.85,-8.84 0,-1.75 0.37,-3.31 1.15,-4.7 0.77,-1.36 1.74,-2.04 2.93,-2.04 1.09,0 2.06,0.51 2.92,1.53 0.87,1.01 1.51,2.54 1.97,4.59 0.54,2.5 1.44,4.51 2.7,6.02 1.25,1.52 2.68,2.29 4.25,2.29 1.41,0 2.75,-0.6 4,-1.82 1.26,-1.19 2.34,-2.92 3.22,-5.12 1.78,-4.46 2.84,-12.34 3.18,-23.66zm-0.85 -19.14c0,-2.82 -0.22,-5.45 -0.68,-7.84 -0.45,-2.39 -1.1,-4.46 -1.93,-6.21 -0.82,-1.75 -1.81,-3.14 -2.95,-4.14 -1.15,-1.01 -2.41,-1.5 -3.77,-1.5 -2.33,0 -4.33,1.71 -5.96,5.1 -1.63,3.4 -2.44,7.88 -2.44,13.47 0,5.53 0.81,9.95 2.44,13.26 1.63,3.29 3.7,4.93 6.19,4.93 1.52,0 2.99,-0.68 4.38,-2.02 1.41,-1.37 2.54,-3.33 3.41,-5.92 0.88,-2.58 1.31,-5.63 1.31,-9.13z"/>
  </g>
 </g>
</svg>
