<?xml version="1.0" encoding="UTF-8"?>
<!DOCTYPE svg PUBLIC "-//W3C//DTD SVG 1.1//EN" "http://www.w3.org/Graphics/SVG/1.1/DTD/svg11.dtd">
<!-- Creator: CorelDRAW 2020 (64 Bit) -->
<svg xmlns="http://www.w3.org/2000/svg" xml:space="preserve" width="8.4666mm" height="8.4666mm" version="1.1" style="shape-rendering:geometricPrecision; text-rendering:geometricPrecision; image-rendering:optimizeQuality; fill-rule:evenodd; clip-rule:evenodd"
viewBox="0 0 846.66 846.66"
 xmlns:xlink="http://www.w3.org/1999/xlink"
 xmlns:xodm="http://www.corel.com/coreldraw/odm/2003">
 <defs>
  <style type="text/css">
   <![CDATA[
    .fil0 {fill:#0C71B3}
    .fil1 {fill:#3EAFE0}
    .fil2 {fill:white}
   ]]>
  </style>
 </defs>
 <g id="Camada_x0020_1">
  <metadata id="CorelCorpID_0Corel-Layer"/>
  <g id="_2047151893728">
   <path class="fil0" d="M423.33 13.15c106.74,0 213.47,0 320.21,0 46.11,0 39.27,-7.51 35.9,38.38 -16.6,225.25 -33.22,450.5 -49.81,675.76 -2.08,28.35 0.42,27.89 -17.75,32.14 -85.14,19.87 -169.64,47.86 -255.66,69.13 -27.76,6.86 -36.17,7.27 -62.68,0.77 -87.09,-21.36 -172.6,-49.79 -258.76,-69.9 -18.17,-4.24 -15.67,-3.79 -17.75,-32.14 -16.59,-225.26 -33.21,-450.51 -49.81,-675.76 -3.37,-45.89 -10.21,-38.38 35.9,-38.38 106.74,0 213.47,0 320.21,0z"/>
   <path class="fil1" d="M423.41 76.09c88.62,0 177.24,0 265.85,0 38.29,0 32.62,-6.24 29.81,31.86 -13.78,187.03 -27.58,374.05 -41.35,561.07 -1.73,23.54 0.35,23.16 -14.74,26.68 -76.18,17.78 -151.75,43.4 -228.95,61.42 -12.28,2.86 -10.62,1.62 -10.62,-20.12 0,-220.3 0,-440.61 0,-660.91z"/>
   <polygon class="fil2" points="544.85,328.74 550.64,240.36 202.91,240.36 204.36,153.42 654.96,153.42 614.39,619.98 423.41,667.79 231.89,612.73 224.65,472.19 317.37,472.19 320.27,543.18 423.41,567.82 528.91,543.18 534.7,428.72 318.82,427.27 318.82,331.64 "/>
  </g>
 </g>
</svg>
