<?xml version="1.0" encoding="UTF-8"?>
<!DOCTYPE svg PUBLIC "-//W3C//DTD SVG 1.1//EN" "http://www.w3.org/Graphics/SVG/1.1/DTD/svg11.dtd">
<!-- Creator: CorelDRAW 2020 (64 Bit) -->
<svg xmlns="http://www.w3.org/2000/svg" xml:space="preserve" width="8.4666mm" height="8.4666mm" version="1.1" style="shape-rendering:geometricPrecision; text-rendering:geometricPrecision; image-rendering:optimizeQuality; fill-rule:evenodd; clip-rule:evenodd"
viewBox="0 0 846.66 846.66"
 xmlns:xlink="http://www.w3.org/1999/xlink"
 xmlns:xodm="http://www.corel.com/coreldraw/odm/2003">
 <defs>
  <style type="text/css">
   <![CDATA[
    .fil0 {fill:#E54F1D}
    .fil1 {fill:#E86A2E}
    .fil2 {fill:white}
   ]]>
  </style>
 </defs>
 <g id="Camada_x0020_1">
  <metadata id="CorelCorpID_0Corel-Layer"/>
  <g id="_2047018300080">
   <path class="fil0" d="M423.33 13.16c106.73,0 213.47,0 320.21,0 46.12,0 39.28,-7.52 35.9,38.37 -16.6,225.26 -33.22,450.51 -49.8,675.76 -2.09,28.36 0.42,27.9 -17.75,32.14 -85.15,19.87 -169.65,47.87 -255.67,69.14 -27.76,6.86 -36.18,7.26 -62.68,0.76 -87.1,-21.36 -172.61,-49.79 -258.78,-69.9 -18.17,-4.24 -15.66,-3.78 -17.75,-32.14 -16.58,-225.25 -33.2,-450.5 -49.8,-675.76 -3.38,-45.89 -10.22,-38.37 35.9,-38.37 106.74,0 213.48,0 320.22,0z"/>
   <path class="fil1" d="M423.4 76.1c88.62,0 177.25,0 265.87,0 38.29,0 32.61,-6.24 29.81,31.86 -13.79,187.02 -27.58,374.04 -41.35,561.06 -1.74,23.55 0.34,23.17 -14.74,26.69 -76.19,17.78 -151.76,43.4 -228.96,61.41 -12.28,2.87 -10.63,1.63 -10.63,-20.12 0,-220.3 0,-440.6 0,-660.9z"/>
   <polygon class="fil2" points="647.25,254.44 303.85,252.99 303.85,347.17 642.9,347.17 616.82,631.16 423.4,684.77 229.96,621.02 222.71,483.37 325.59,483.37 325.59,547.12 423.33,580.45 532.78,551.47 535.68,434.11 218.37,434.11 196.63,158.81 655.94,158.81 "/>
  </g>
 </g>
</svg>
