<?xml version="1.0" encoding="UTF-8"?>
<!DOCTYPE svg PUBLIC "-//W3C//DTD SVG 1.1//EN" "http://www.w3.org/Graphics/SVG/1.1/DTD/svg11.dtd">
<!-- Creator: CorelDRAW 2020 (64 Bit) -->
<svg xmlns="http://www.w3.org/2000/svg" xml:space="preserve" width="8.4666mm" height="8.4666mm" version="1.1" style="shape-rendering:geometricPrecision; text-rendering:geometricPrecision; image-rendering:optimizeQuality; fill-rule:evenodd; clip-rule:evenodd"
viewBox="0 0 846.66 846.66"
 xmlns:xlink="http://www.w3.org/1999/xlink"
 xmlns:xodm="http://www.corel.com/coreldraw/odm/2003">
 <defs>
  <style type="text/css">
   <![CDATA[
    .fil0 {fill:#E2A12E}
    .fil1 {fill:#F2BD22}
    .fil2 {fill:white}
   ]]>
  </style>
 </defs>
 <g id="Camada_x0020_1">
  <metadata id="CorelCorpID_0Corel-Layer"/>
  <g id="_2047024215408">
   <path class="fil0" d="M423.33 13.15c106.74,0 213.47,0 320.21,0 46.11,0 39.28,-7.51 35.9,38.38 -16.6,225.25 -33.22,450.5 -49.8,675.75 -2.09,28.36 0.42,27.9 -17.76,32.14 -85.14,19.87 -169.64,47.87 -255.65,69.14 -27.76,6.86 -36.18,7.27 -62.68,0.76 -87.09,-21.35 -172.6,-49.79 -258.77,-69.9 -18.17,-4.24 -15.66,-3.78 -17.75,-32.14 -16.59,-225.25 -33.2,-450.5 -49.8,-675.75 -3.38,-45.89 -10.22,-38.38 35.9,-38.38 106.73,0 213.47,0 320.2,0z"/>
   <path class="fil1" d="M423.41 76.09c88.62,0 177.24,0 265.86,0 38.28,0 32.61,-6.24 29.8,31.86 -13.78,187.03 -27.58,374.04 -41.35,561.07 -1.73,23.54 0.35,23.16 -14.73,26.68 -76.19,17.78 -151.76,43.4 -228.95,61.41 -12.29,2.87 -10.63,1.63 -10.63,-20.11 0,-220.31 0,-440.61 0,-660.91z"/>
   <polygon class="fil2" points="336.58,205.93 532.18,204.48 539.42,300.11 633.6,294.32 614.76,103.06 246.75,103.06 223.57,440.66 522.03,440.66 522.03,553.67 423.41,585.55 317.74,552.23 317.74,482.68 219.22,482.68 233.71,624.67 423.41,678.28 613.31,624.67 630.7,346.48 327.89,346.48 "/>
  </g>
 </g>
</svg>
